:FULLY-SPECIFIED
:DEGREES
1304
root 1.70299 15.7559 -1.93667 2904.86 -98.7754 -2903.44
lowerback 5.21683 1.57967 -6.35083
upperback -1.4878 1.67822 0.366723
thorax -4.67972 1.01676 3.79168
lowerneck -17.9176 1.59575 1.85184
upperneck 24.2881 2.34058 -3.39511
head 10.8648 0.700801 -1.2202
rclavicle -1.27222e-014 1.05356e-014
rhumerus -39.5794 -19.8756 -74.7101
rradius 13.7848
rwrist 23.4397
rhand -28.6813 -17.7319
rfingers 7.12502
rthumb -2.04394 -47.7019
lclavicle -1.27222e-014 1.05356e-014
lhumerus -25.9526 -6.8632 93.041
lradius 32.1882
lwrist 12.67
lhand -32.01 16.263
lfingers 7.12502
lthumb -5.25842 46.1778
rfemur -20.5047 -1.198 14.5497
rtibia 68.0953
rfoot -2.83353 -18.301
rtoes -9.8505
lfemur -8.47688 -4.78926 -29.8891
ltibia 19.5066
lfoot -10.3 8.26369
ltoes -4.14197
1305
root 1.71024 15.745 -1.92992 2905.45 -98.4567 -2904.2
lowerback 5.42064 1.45506 -6.34529
upperback -1.44487 1.50246 0.428157
thorax -4.73168 0.931221 3.86695
lowerneck -17.8774 1.60043 1.81517
upperneck 24.2992 2.34944 -3.36639
head 10.8606 0.704645 -1.20264
rclavicle -1.90833e-014 9.34288e-015
rhumerus -40.5537 -21.3745 -73.1195
rradius 13.3534
rwrist 25.5082
rhand -28.8875 -17.6767
rfingers 7.12502
rthumb -2.24304 -47.6447
lclavicle -1.90833e-014 9.34288e-015
lhumerus -25.2128 -7.01497 92.7986
lradius 32.3845
lwrist 12.3854
lhand -32.2541 15.9986
lfingers 7.12502
lthumb -5.49402 45.9074
rfemur -21.5205 -1.19391 14.7851
rtibia 67.9908
rfoot -4.39484 -18.269
rtoes -10.1537
lfemur -7.70657 -4.76432 -30.0269
ltibia 19.5051
lfoot -10.7824 7.97639
ltoes -4.23777
1306
root 1.71719 15.7272 -1.92428 2906.24 -98.3158 -2905.16
lowerback 5.55752 1.38818 -6.46956
upperback -1.37043 1.39918 0.476876
thorax -4.72427 0.882378 3.9969
lowerneck -17.9127 1.60475 1.78227
upperneck 24.3438 2.36044 -3.34885
head 10.8837 0.707581 -1.18953
rclavicle -1.19271e-014 9.54166e-015
rhumerus -41.3585 -22.5017 -71.7957
rradius 13.0773
rwrist 26.5293
rhand -29.0312 -17.5968
rfingers 7.12502
rthumb -2.38184 -47.5632
lclavicle -1.19271e-014 9.54166e-015
lhumerus -24.436 -7.21369 92.5923
lradius 32.6193
lwrist 12.272
lhand -32.3237 15.9351
lfingers 7.12502
lthumb -5.56129 45.8421
rfemur -22.4877 -0.990366 14.9183
rtibia 67.6696
rfoot -6.03019 -18.1524
rtoes -10.2568
lfemur -6.94635 -4.76414 -30.277
ltibia 19.5391
lfoot -11.2665 7.92795
ltoes -4.31356
1307
root 1.73043 15.7094 -1.92084 2908.52 -98.0553 -2907.5
lowerback 5.70831 1.26745 -6.75373
upperback -1.37253 1.20744 0.515818
thorax -4.79788 0.798463 4.21537
lowerneck -17.9217 1.59997 1.71576
upperneck 24.3925 2.36647 -3.32479
head 10.9025 0.705762 -1.16926
rclavicle -7.95139e-016 -1.39149e-014
rhumerus -42.0675 -23.0334 -70.8654
rradius 12.9899
rwrist 26.8456
rhand -28.9474 -17.9047
rfingers 7.12502
rthumb -2.30095 -47.872
lclavicle -7.95139e-016 -1.39149e-014
lhumerus -23.7167 -7.41617 92.4321
lradius 32.9186
lwrist 12.3466
lhand -32.3678 16.0297
lfingers 7.12502
lthumb -5.60382 45.9357
rfemur -23.5296 -1.10272 14.9445
rtibia 67.1277
rfoot -7.41816 -18.0777
rtoes -11.3115
lfemur -6.44256 -4.76463 -30.609
ltibia 19.7463
lfoot -11.7998 7.62581
ltoes -4.36125
1308
root 1.74342 15.6838 -1.91945 2910.97 -97.794 -2909.98
lowerback 5.8088 1.14781 -7.00744
upperback -1.37102 1.02106 0.525038
thorax -4.83639 0.714736 4.38639
lowerneck -17.9158 1.59188 1.68342
upperneck 24.4175 2.34907 -3.26857
head 10.9089 0.701357 -1.14626
rclavicle -6.36111e-015 -1.31198e-014
rhumerus -42.7634 -23.3708 -70.1297
rradius 12.9399
rwrist 27.1248
rhand -28.9455 -17.9365
rfingers 7.12502
rthumb -2.2991 -47.9038
lclavicle -6.36111e-015 -1.31198e-014
lhumerus -23.0165 -7.76175 92.2593
lradius 33.1818
lwrist 12.5162
lhand -32.6726 15.8343
lfingers 7.12502
lthumb -5.89813 45.7322
rfemur -24.5132 -1.13912 14.9962
rtibia 66.3618
rfoot -9.00632 -18.2929
rtoes -11.6179
lfemur -5.97333 -4.69208 -30.9285
ltibia 20.0531
lfoot -12.3291 7.28551
ltoes -4.9539
